<svg width="41" height="41" viewBox="0 0 41 41" fill="none" xmlns="http://www.w3.org/2000/svg">
<circle cx="20.5" cy="20.3258" r="20" fill="#F9BB43"/>
<mask id="path-2-outside-1_17_227" maskUnits="userSpaceOnUse" x="11.2625" y="7.94289" width="18" height="24" fill="black">
<rect fill="white" x="11.2625" y="7.94289" width="18" height="24"/>
<path d="M21.6036 13.9171C21.2234 14.9792 21.7688 16.1873 22.831 16.5676L24.0265 16.9858C24.2932 17.062 24.4544 17.3881 24.3782 17.6548C23.5695 20.3337 22.1904 22.7224 20.2748 24.7622C20.0819 24.9616 19.7647 24.9727 19.5195 24.7921L18.5596 23.9659C17.6992 23.2362 16.3972 23.3389 15.6505 24.2282L13.6202 26.6684C13.0036 27.3999 13.2073 28.5271 14.0521 29.0149C17.227 30.8481 22.1998 28.0875 25.2101 22.8734C28.2204 17.6594 28.0956 11.9559 24.9497 10.1396C24.1051 9.652 23.0898 10.12 22.7355 11.0029L21.6036 13.9171Z"/>
</mask>
<path d="M21.6036 13.9171L20.2054 13.374L20.1981 13.3927L20.1914 13.4115L21.6036 13.9171ZM22.831 16.5676L22.3254 17.9798L22.3357 17.9835L22.831 16.5676ZM24.0265 16.9858L23.5312 18.4017L23.5723 18.4161L23.6142 18.428L24.0265 16.9858ZM24.3782 17.6548L25.8142 18.0883L25.8174 18.0777L25.8205 18.067L24.3782 17.6548ZM20.2748 24.7622L21.3529 25.8051L21.3606 25.7971L21.3682 25.789L20.2748 24.7622ZM19.5195 24.7921L18.541 25.929L18.5842 25.9661L18.63 25.9999L19.5195 24.7921ZM18.5596 23.9659L19.5381 22.829L19.5298 22.8219L18.5596 23.9659ZM15.6505 24.2282L14.5018 23.2636L14.4974 23.2688L15.6505 24.2282ZM13.6202 26.6684L14.7671 27.6351L14.7733 27.6278L13.6202 26.6684ZM14.0521 29.0149L14.8022 27.7159L14.8021 27.7158L14.0521 29.0149ZM24.9497 10.1396L25.6997 8.84061L24.9497 10.1396ZM22.7355 11.0029L21.3434 10.4443L21.3403 10.4521L21.3373 10.4598L22.7355 11.0029ZM20.1914 13.4115C19.5424 15.2243 20.4543 17.3099 22.3254 17.9798L23.3366 15.1554C23.0833 15.0647 22.9044 14.7341 23.0159 14.4227L20.1914 13.4115ZM22.3357 17.9835L23.5312 18.4017L24.5218 15.5699L23.3263 15.1517L22.3357 17.9835ZM23.6142 18.428C23.275 18.3311 23.0845 18.1046 22.9976 17.9361C22.9115 17.769 22.8553 17.5248 22.9359 17.2427L25.8205 18.067C25.9773 17.5181 25.8786 16.9776 25.6642 16.5616C25.4491 16.1444 25.0447 15.7168 24.4387 15.5436L23.6142 18.428ZM22.9422 17.2214C22.2004 19.6787 20.9386 21.8642 19.1814 23.7353L21.3682 25.789C23.4423 23.5805 24.9386 20.9888 25.8142 18.0883L22.9422 17.2214ZM19.1966 23.7193C19.6075 23.2945 20.1491 23.3929 20.409 23.5843L18.63 25.9999C19.3804 26.5525 20.5563 26.6286 21.3529 25.8051L19.1966 23.7193ZM20.498 23.6552L19.5381 22.829L17.5811 25.1028L18.541 25.929L20.498 23.6552ZM19.5298 22.8219C18.0311 21.5508 15.7794 21.7421 14.5018 23.2636L16.7992 25.1928C17.0151 24.9357 17.3674 24.9216 17.5893 25.1098L19.5298 22.8219ZM14.4974 23.2688L12.4671 25.709L14.7733 27.6278L16.8036 25.1876L14.4974 23.2688ZM12.4733 25.7016C11.2397 27.1652 11.6689 29.3709 13.3021 30.3139L14.8021 27.7158C14.7872 27.7072 14.7802 27.6993 14.7757 27.6928C14.7702 27.6848 14.7657 27.6745 14.7636 27.663C14.7615 27.6515 14.7627 27.6439 14.7634 27.6412C14.7636 27.6404 14.7635 27.6394 14.7671 27.6351L12.4733 25.7016ZM13.3021 30.3138C15.5181 31.5935 18.1489 31.1522 20.4176 29.9002C22.7122 28.6339 24.8916 26.4251 26.5091 23.6234L23.9111 22.1234C22.5183 24.5358 20.7062 26.3144 18.9681 27.2736C17.2041 28.2471 15.761 28.2695 14.8022 27.7159L13.3021 30.3138ZM26.5091 23.6234C28.1283 20.8189 28.9429 17.8221 28.8882 15.201C28.8341 12.6135 27.9032 10.1128 25.6997 8.84061L24.1997 11.4387C25.1421 11.9827 25.8466 13.2419 25.8888 15.2637C25.9304 17.252 25.3022 19.7139 23.9111 22.1234L26.5091 23.6234ZM25.6997 8.84061C23.9147 7.81001 21.9699 8.88305 21.3434 10.4443L24.1277 11.5615C24.141 11.5282 24.1598 11.5009 24.1802 11.4802C24.2012 11.459 24.2201 11.4484 24.2304 11.4441C24.2399 11.4402 24.237 11.4435 24.2228 11.4428C24.2056 11.4419 24.1957 11.4364 24.1997 11.4387L25.6997 8.84061ZM21.3373 10.4598L20.2054 13.374L23.0019 14.4602L24.1338 11.546L21.3373 10.4598Z" fill="#06080B" mask="url(#path-2-outside-1_17_227)"/>
</svg>
