<svg width="41" height="41" viewBox="0 0 41 41" fill="none" xmlns="http://www.w3.org/2000/svg">
<path d="M40.5 20.3258C40.5 31.3715 31.5457 40.3258 20.5 40.3258C9.4543 40.3258 0.5 31.3715 0.5 20.3258C0.5 9.28011 9.4543 0.325806 20.5 0.325806C31.5457 0.325806 40.5 9.28011 40.5 20.3258Z" fill="#F9BB43"/>
<path fill-rule="evenodd" clip-rule="evenodd" d="M11 18.2499L11 16.7147C11 15.1192 12.3087 13.8258 13.9231 13.8258L27.0769 13.8258C28.6912 13.8258 29.9999 15.1192 30 16.7146L30 18.2469L29.9999 18.247L29.9999 18.8824C29.9999 19.933 29.9999 20.7534 29.9999 21.5258C30 22.3148 30 23.0536 30 23.9363C30 25.531 28.6921 26.8258 27.0769 26.8258L13.9231 26.8258C12.3081 26.8258 11.0001 25.5312 11.0001 23.9364L11 18.2499ZM12.4616 18.8824C12.4616 18.8824 13.056 19.1126 13.9231 19.4424C16.1112 20.2744 20.0359 21.7402 20.53 21.7402C21.0652 21.7402 24.916 20.2844 27.0768 19.4509C27.9435 19.1166 28.5384 18.8824 28.5384 18.8824C28.5384 19.4596 28.5384 19.9674 28.5384 20.4359C28.5384 20.8201 28.5384 21.1778 28.5384 21.5258C28.5384 22.3149 28.5384 23.0536 28.5384 23.9363C28.5384 24.734 27.8841 25.3814 27.0769 25.3814L13.9231 25.3814C13.116 25.3814 12.4616 24.7341 12.4616 23.9364L12.4616 18.8824ZM28.5384 17.273C28.5384 17.273 21.2498 20.1863 20.5 20.1863C19.8101 20.1863 12.4615 17.273 12.4615 17.273L12.4615 16.7147C12.4616 15.9169 13.1159 15.2703 13.9231 15.2703L27.0769 15.2703C27.884 15.2703 28.5384 15.9169 28.5384 16.7147L28.5384 17.273Z" fill="#06080B"/>
</svg>
