<svg width="41" height="41" viewBox="0 0 41 41" fill="none" xmlns="http://www.w3.org/2000/svg">
<path d="M40.5 20.3258C40.5 31.3715 31.5457 40.3258 20.5 40.3258C9.4543 40.3258 0.5 31.3715 0.5 20.3258C0.5 9.28011 9.4543 0.325806 20.5 0.325806C31.5457 0.325806 40.5 9.28011 40.5 20.3258Z" fill="#F9BB43"/>
<path fill-rule="evenodd" clip-rule="evenodd" d="M15.8362 23.7917H14.2536C13.4575 23.7917 12.8121 23.1463 12.8121 22.3502V16.1014C12.8121 15.3053 13.4575 14.6599 14.2536 14.6599H26.7464C27.5425 14.6599 28.1879 15.3053 28.1879 16.1014V22.3502C28.1879 23.1463 27.5425 23.7917 26.7464 23.7917H20.8609L14.9337 27.9409C14.7446 28.0733 14.4958 27.8888 14.5676 27.6694L15.8362 23.7917ZM21.3153 25.2332H26.7464C28.3386 25.2332 29.6294 23.9424 29.6294 22.3502V16.1014C29.6294 14.5091 28.3386 13.2184 26.7464 13.2184H14.2536C12.6614 13.2184 11.3706 14.5091 11.3706 16.1014V22.3502C11.3706 23.8078 12.4523 25.0128 13.8568 25.2061L13.1976 27.2212C12.6952 28.7569 14.4367 30.0484 15.7604 29.1218L21.3153 25.2332Z" fill="#06080B"/>
<path d="M17.6026 19.0541C17.6026 19.8344 16.9701 20.4668 16.19 20.4668C15.4097 20.4668 14.7773 19.8345 14.7773 19.0541C14.7773 18.274 15.4096 17.6415 16.19 17.6415C16.9701 17.6415 17.6026 18.274 17.6026 19.0541Z" fill="#06080B"/>
<path d="M21.9415 19.0541C21.9415 19.8344 21.309 20.4668 20.5289 20.4668C19.7487 20.4668 19.1162 19.8345 19.1162 19.0541C19.1162 18.274 19.7487 17.6415 20.5289 17.6415C21.309 17.6415 21.9415 18.274 21.9415 19.0541Z" fill="#06080B"/>
<path d="M26.2803 19.0541C26.2803 19.8344 25.6478 20.4668 24.8677 20.4668C24.0873 20.4668 23.4548 19.8345 23.4548 19.0541C23.4548 18.274 24.0873 17.6415 24.8677 17.6415C25.6477 17.6415 26.2803 18.274 26.2803 19.0541Z" fill="#06080B"/>
</svg>
